<svg width="275" height="183" version="1.1" xmlns="http://www.w3.org/2000/svg" desc="Created with imagetracer.js version 1.2.6" ><path fill="rgb(247,241,242)" stroke="rgb(247,241,242)" stroke-width="1" opacity="1" d="M 99.5 26 Q 103.3 25 102 28 L 99.5 26 Z " /><path fill="rgb(247,241,242)" stroke="rgb(247,241,242)" stroke-width="1" opacity="1" d="M 179.5 27 L 180 29.5 L 178 28.5 L 179.5 27 Z " /><path fill="rgb(247,241,242)" stroke="rgb(247,241,242)" stroke-width="1" opacity="1" d="M 175.5 28 L 176 30 L 173.5 31 L 101.5 31 L 101.5 30 L 170.5 30 L 175.5 28 Z " /><path fill="rgb(247,241,242)" stroke="rgb(247,241,242)" stroke-width="1" opacity="1" d="M 91.5 32 L 90.5 34 L 91.5 32 Z " /><path fill="rgb(247,241,242)" stroke="rgb(247,241,242)" stroke-width="1" opacity="1" d="M 187.5 33 L 188.5 36 L 191.5 34 L 192 36.5 Q 192.8 38.8 190.5 38 L 190.5 36 L 188.5 37 Q 186 36 187.5 33 Z " /><path fill="rgb(247,241,242)" stroke="rgb(247,241,242)" stroke-width="1" opacity="1" d="M 81.5 34 L 81.5 37 Q 78.5 35.5 81.5 34 Z " /><path fill="rgb(247,241,242)" stroke="rgb(247,241,242)" stroke-width="1" opacity="1" d="M 84.5 34 L 88 35.5 L 86 36.5 Q 86.8 34.3 84.5 35 L 84.5 37 Q 81.5 35.5 84.5 34 Z " /><path fill="rgb(247,241,242)" stroke="rgb(247,241,242)" stroke-width="1" opacity="1" d="M 81.5 38 L 83 40.5 L 81 41.5 L 81.5 40 L 80 39.5 L 81.5 38 Z " /><path fill="rgb(247,241,242)" stroke="rgb(247,241,242)" stroke-width="1" opacity="1" d="M 192.5 40 L 195 40.5 Q 192.9 43.8 192.5 40 Z " /><path fill="rgb(247,241,242)" stroke="rgb(247,241,242)" stroke-width="1" opacity="1" d="M 197.5 41 L 198.5 43 L 197.5 41 Z " /><path fill="rgb(247,241,242)" stroke="rgb(247,241,242)" stroke-width="1" opacity="1" d="M 195.5 42 L 197 44.5 L 196 44.5 L 195.5 43 L 194 43.5 L 195.5 42 Z " /><path fill="rgb(247,241,242)" stroke="rgb(247,241,242)" stroke-width="1" opacity="1" d="M 78.5 46 L 79 48 L 77 47.5 L 78.5 46 Z " /><path fill="rgb(247,241,242)" stroke="rgb(247,241,242)" stroke-width="1" opacity="1" d="M 123.5 46 L 154 46.5 Q 152.8 49.3 151.5 47 L 123.5 47 L 123.5 46 Z " /><path fill="rgb(247,241,242)" stroke="rgb(247,241,242)" stroke-width="1" opacity="1" d="M 112.5 47 L 115 47.5 L 112 48 L 111.5 50 L 111 48.5 L 112.5 47 Z " /><path fill="rgb(247,241,242)" stroke="rgb(247,241,242)" stroke-width="1" opacity="1" d="M 161.5 47 L 164 48.5 L 162.5 49 L 161.5 47 Z " /><path fill="rgb(247,241,242)" stroke="rgb(247,241,242)" stroke-width="1" opacity="1" d="M 106.5 49 L 108 49.5 L 104 51.5 L 105 52.5 L 100 57.5 L 98.5 60 L 99 58.5 Q 97.9 55.2 100.5 56 L 102 53 L 104 52.5 Q 101.8 51.3 104.5 50 L 106.5 49 Z " /><path fill="rgb(247,241,242)" stroke="rgb(247,241,242)" stroke-width="1" opacity="1" d="M 168.5 49 L 169 50.5 L 166.5 52 L 166.5 51 Q 169 51.7 168.5 49 Z " /><path fill="rgb(247,241,242)" stroke="rgb(247,241,242)" stroke-width="1" opacity="1" d="M 125.5 50 L 128 50.5 L 125.5 51 L 125.5 50 Z " /><path fill="rgb(247,241,242)" stroke="rgb(247,241,242)" stroke-width="1" opacity="1" d="M 170.5 50 Q 173.5 51.5 170.5 53 L 170.5 50 Z " /><path fill="rgb(247,241,242)" stroke="rgb(247,241,242)" stroke-width="1" opacity="1" d="M 160.5 52 L 161.5 54 Q 158.7 54.7 160.5 52 Z " /><path fill="rgb(247,241,242)" stroke="rgb(247,241,242)" stroke-width="1" opacity="1" d="M 112.5 53 L 114 55.5 L 112 56 L 112.5 53 Z " /><path fill="rgb(247,241,242)" stroke="rgb(247,241,242)" stroke-width="1" opacity="1" d="M 172.5 53 L 173 55 L 167.5 57 L 167.5 56 Q 172 56.5 172.5 53 Z " /><path fill="rgb(247,241,242)" stroke="rgb(247,241,242)" stroke-width="1" opacity="1" d="M 174.5 53 Q 177.5 53.5 177 57.5 L 175 57.5 L 172.5 61 Q 174.1 59.3 171 57.5 L 172.5 56 L 173.5 59 L 175 55.5 L 174.5 53 Z " /><path fill="rgb(247,241,242)" stroke="rgb(247,241,242)" stroke-width="1" opacity="1" d="M 76.5 54 L 77 60.5 L 76 60.5 L 75 56.5 L 76.5 54 Z " /><path fill="rgb(247,241,242)" stroke="rgb(247,241,242)" stroke-width="1" opacity="1" d="M 120.5 54 L 158 54.5 L 120.5 55 L 120.5 54 Z " /><path fill="rgb(247,241,242)" stroke="rgb(247,241,242)" stroke-width="1" opacity="1" d="M 163.5 54 L 166 55.5 L 164 56.5 L 163.5 54 Z " /><path fill="rgb(247,241,242)" stroke="rgb(247,241,242)" stroke-width="1" opacity="1" d="M 198 54 Q 200.7 52.9 200 55.5 L 198.5 64 L 198 54 Z " /><path fill="rgb(247,241,242)" stroke="rgb(247,241,242)" stroke-width="1" opacity="1" d="M 97.5 57 L 96.5 59 L 97.5 57 Z " /><path fill="rgb(247,241,242)" stroke="rgb(247,241,242)" stroke-width="1" opacity="1" d="M 105.5 57 Q 107.8 56.3 107 58.5 L 105.5 57 Z " /><path fill="rgb(247,241,242)" stroke="rgb(247,241,242)" stroke-width="1" opacity="1" d="M 178.5 58 L 178.5 60 L 180 60.5 L 177 62.5 L 176 60.5 L 178.5 58 Z " /><path fill="rgb(247,241,242)" stroke="rgb(247,241,242)" stroke-width="1" opacity="1" d="M 95.5 60 Q 97.8 59.3 97 61.5 L 95.5 60 Z " /><path fill="rgb(247,241,242)" stroke="rgb(247,241,242)" stroke-width="1" opacity="1" d="M 94.5 62 L 97 63.5 L 95.5 64 L 94.5 62 Z " /><path fill="rgb(247,241,242)" stroke="rgb(247,241,242)" stroke-width="1" opacity="1" d="M 159.5 62 L 158.5 64 L 159.5 62 Z " /><path fill="rgb(247,241,242)" stroke="rgb(247,241,242)" stroke-width="1" opacity="1" d="M 163.5 62 L 165 65 L 167 65.5 L 165.5 66 L 164 65.5 L 167 69.5 L 163 66.5 L 164 63.5 L 163.5 62 Z " /><path fill="rgb(247,241,242)" stroke="rgb(247,241,242)" stroke-width="1" opacity="1" d="M 180.5 62 L 181 64 L 179 63.5 L 180.5 62 Z " /><path fill="rgb(247,241,242)" stroke="rgb(247,241,242)" stroke-width="1" opacity="1" d="M 74.5 64 L 75 66.5 L 74 66.5 L 74.5 64 Z " /><path fill="rgb(247,241,242)" stroke="rgb(247,241,242)" stroke-width="1" opacity="1" d="M 156 65 L 158 65.5 L 156.5 69 L 156 65 Z " /><path fill="rgb(247,241,242)" stroke="rgb(247,241,242)" stroke-width="1" opacity="1" d="M 135.5 68 L 141 68.5 L 135.5 69 L 135.5 68 Z " /><path fill="rgb(247,241,242)" stroke="rgb(247,241,242)" stroke-width="1" opacity="1" d="M 94.5 69 L 95 71.5 L 94 71.5 L 94.5 69 Z " /><path fill="rgb(247,241,242)" stroke="rgb(247,241,242)" stroke-width="1" opacity="1" d="M 144.5 69 L 145.5 71 L 147 70.5 Q 145.5 73.5 144 70.5 L 144.5 69 Z " /><path fill="rgb(247,241,242)" stroke="rgb(247,241,242)" stroke-width="1" opacity="1" d="M 100.5 70 L 101 87.5 L 100 87.5 L 100.5 70 Z " /><path fill="rgb(247,241,242)" stroke="rgb(247,241,242)" stroke-width="1" opacity="1" d="M 148.5 71 L 147.5 73 L 148.5 71 Z " /><path fill="rgb(247,241,242)" stroke="rgb(247,241,242)" stroke-width="1" opacity="1" d="M 160.5 71 L 164 72.5 L 159.5 73 L 160.5 71 Z " /><path fill="rgb(247,241,242)" stroke="rgb(247,241,242)" stroke-width="1" opacity="1" d="M 124.5 72 L 127 75.5 L 124.5 74 L 123 74.5 L 123.5 76 Q 120 74 124.5 72 Z " /><path fill="rgb(247,241,242)" stroke="rgb(247,241,242)" stroke-width="1" opacity="1" d="M 150.5 72 L 151.5 74 L 150.5 72 Z " /><path fill="rgb(247,241,242)" stroke="rgb(247,241,242)" stroke-width="1" opacity="1" d="M 143.5 74 L 144.5 76 L 143.5 74 Z " /><path fill="rgb(247,241,242)" stroke="rgb(247,241,242)" stroke-width="1" opacity="1" d="M 174.5 74 L 176 87.5 L 175 88.5 L 174.5 112 L 174.5 74 Z " /><path fill="rgb(247,241,242)" stroke="rgb(247,241,242)" stroke-width="1" opacity="1" d="M 92.5 75 L 93 105.5 L 92 105.5 L 92.5 75 Z " /><path fill="rgb(247,241,242)" stroke="rgb(247,241,242)" stroke-width="1" opacity="1" d="M 133.5 75 L 141 76.5 L 134.5 77 L 133.5 75 Z " /><path fill="rgb(247,241,242)" stroke="rgb(247,241,242)" stroke-width="1" opacity="1" d="M 182.5 75 L 183 106.5 L 182 106.5 L 182.5 75 Z " /><path fill="rgb(247,241,242)" stroke="rgb(247,241,242)" stroke-width="1" opacity="1" d="M 130.5 76 L 131.5 78 L 130.5 76 Z " /><path fill="rgb(247,241,242)" stroke="rgb(247,241,242)" stroke-width="1" opacity="1" d="M 119.5 77 L 122 77.5 L 117.5 81 L 118 79.5 L 119.5 77 Z " /><path fill="rgb(247,241,242)" stroke="rgb(247,241,242)" stroke-width="1" opacity="1" d="M 128.5 77 L 129.5 79 L 128.5 77 Z " /><path fill="rgb(247,241,242)" stroke="rgb(247,241,242)" stroke-width="1" opacity="1" d="M 155.5 77 L 156.5 79 L 155.5 77 Z " /><path fill="rgb(247,241,242)" stroke="rgb(247,241,242)" stroke-width="1" opacity="1" d="M 148.5 78 L 150 80.5 L 149 80.5 L 148.5 78 Z " /><path fill="rgb(247,241,242)" stroke="rgb(247,241,242)" stroke-width="1" opacity="1" d="M 122.5 79 L 124 79.5 L 121.5 81 L 122.5 79 Z " /><path fill="rgb(247,241,242)" stroke="rgb(247,241,242)" stroke-width="1" opacity="1" d="M 126.5 80 L 125.5 82 L 124 81.5 L 126.5 80 Z " /><path fill="rgb(247,241,242)" stroke="rgb(247,241,242)" stroke-width="1" opacity="1" d="M 123.5 83 L 125 83.5 Q 122.3 85.8 122.5 91 L 121 86.5 L 123.5 83 Z " /><path fill="rgb(247,241,242)" stroke="rgb(247,241,242)" stroke-width="1" opacity="1" d="M 115.5 84 L 116.5 86 Q 113.7 86.7 115.5 84 Z " /><path fill="rgb(247,241,242)" stroke="rgb(247,241,242)" stroke-width="1" opacity="1" d="M 159.5 84 L 158.5 86 L 159.5 84 Z " /><path fill="rgb(247,241,242)" stroke="rgb(247,241,242)" stroke-width="1" opacity="1" d="M 159.5 87 Q 162.3 88.3 161 93.5 L 160 93.5 L 159.5 87 Z " /><path fill="rgb(247,241,242)" stroke="rgb(247,241,242)" stroke-width="1" opacity="1" d="M 114.5 88 L 116 94 L 114 94 L 114.5 88 Z " /><path fill="rgb(247,241,242)" stroke="rgb(247,241,242)" stroke-width="1" opacity="1" d="M 152.5 88 L 153 94.5 L 152 94.5 L 152.5 88 Z " /><path fill="rgb(247,241,242)" stroke="rgb(247,241,242)" stroke-width="1" opacity="1" d="M 122.5 93 L 123 95.5 L 122 95.5 L 122.5 93 Z " /><path fill="rgb(247,241,242)" stroke="rgb(247,241,242)" stroke-width="1" opacity="1" d="M 100.5 96 L 101 111.5 L 100 111.5 L 100.5 96 Z " /><path fill="rgb(247,241,242)" stroke="rgb(247,241,242)" stroke-width="1" opacity="1" d="M 156.5 97 L 159 100.5 L 156 98.5 L 156.5 97 Z " /><path fill="rgb(247,241,242)" stroke="rgb(247,241,242)" stroke-width="1" opacity="1" d="M 158.5 97 Q 160.8 96.3 160 98.5 L 158.5 97 Z " /><path fill="rgb(247,241,242)" stroke="rgb(247,241,242)" stroke-width="1" opacity="1" d="M 115.5 98 L 117 100.5 L 116 100.5 L 115.5 98 Z " /><path fill="rgb(247,241,242)" stroke="rgb(247,241,242)" stroke-width="1" opacity="1" d="M 123.5 99 Q 125.8 98.3 125 100.5 Q 128.5 101 128 105.5 L 126 104.5 L 127 103.5 L 123.5 99 Z " /><path fill="rgb(247,241,242)" stroke="rgb(247,241,242)" stroke-width="1" opacity="1" d="M 150.5 99 L 152 99.5 L 149.5 101 L 150.5 99 Z " /><path fill="rgb(247,241,242)" stroke="rgb(247,241,242)" stroke-width="1" opacity="1" d="M 122.5 101 L 124 104 L 121 102.5 L 122.5 101 Z " /><path fill="rgb(247,241,242)" stroke="rgb(247,241,242)" stroke-width="1" opacity="1" d="M 156.5 101 L 157.5 103 Q 154.7 103.7 156.5 101 Z " /><path fill="rgb(247,241,242)" stroke="rgb(247,241,242)" stroke-width="1" opacity="1" d="M 151.5 102 L 150.5 104 L 151.5 102 Z " /><path fill="rgb(247,241,242)" stroke="rgb(247,241,242)" stroke-width="1" opacity="1" d="M 119.5 103 L 124.5 110 Q 127.8 108.9 127 111.5 L 125.5 111 L 119 105.5 L 119.5 103 Z " /><path fill="rgb(247,241,242)" stroke="rgb(247,241,242)" stroke-width="1" opacity="1" d="M 145.5 104 L 147.5 104 L 149 104.5 L 146.5 106 L 145.5 104 Z " /><path fill="rgb(247,241,242)" stroke="rgb(247,241,242)" stroke-width="1" opacity="1" d="M 156.5 104 L 151.5 110 L 151.5 107 L 152.5 108 L 156.5 104 Z " /><path fill="rgb(247,241,242)" stroke="rgb(247,241,242)" stroke-width="1" opacity="1" d="M 133.5 106 L 138.5 107 L 140.5 106 L 140.5 107 L 136.5 108 L 133.5 107 L 133.5 106 Z " /><path fill="rgb(247,241,242)" stroke="rgb(247,241,242)" stroke-width="1" opacity="1" d="M 93.5 107 L 94 111.5 L 93 111.5 L 93.5 107 Z " /><path fill="rgb(247,241,242)" stroke="rgb(247,241,242)" stroke-width="1" opacity="1" d="M 126.5 107 L 131 109.5 L 128.5 110 L 126.5 107 Z " /><path fill="rgb(247,241,242)" stroke="rgb(247,241,242)" stroke-width="1" opacity="1" d="M 98.5 109 L 99 112.5 L 98 112.5 L 98.5 109 Z " /><path fill="rgb(247,241,242)" stroke="rgb(247,241,242)" stroke-width="1" opacity="1" d="M 146.5 110 L 149 111.5 L 147.5 111 L 146.5 110 Z " /><path fill="rgb(247,241,242)" stroke="rgb(247,241,242)" stroke-width="1" opacity="1" d="M 144.5 111 L 145 112.5 L 143 113.5 L 144.5 111 Z " /><path fill="rgb(247,241,242)" stroke="rgb(247,241,242)" stroke-width="1" opacity="1" d="M 75.5 113 L 76 115.5 L 75 115.5 L 75.5 113 Z " /><path fill="rgb(247,241,242)" stroke="rgb(247,241,242)" stroke-width="1" opacity="1" d="M 136.5 113 L 139 114.5 L 135.5 115 L 136.5 113 Z " /><path fill="rgb(247,241,242)" stroke="rgb(247,241,242)" stroke-width="1" opacity="1" d="M 100.5 114 L 107 124.5 L 102 120.5 L 100.5 114 Z " /><path fill="rgb(247,241,242)" stroke="rgb(247,241,242)" stroke-width="1" opacity="1" d="M 93.5 115 L 95 119.5 L 94 119.5 L 93.5 115 Z " /><path fill="rgb(247,241,242)" stroke="rgb(247,241,242)" stroke-width="1" opacity="1" d="M 97.5 115 L 98 117.5 L 97 117.5 L 97.5 115 Z " /><path fill="rgb(247,241,242)" stroke="rgb(247,241,242)" stroke-width="1" opacity="1" d="M 198.5 120 L 199 129.5 L 198 129.5 L 198.5 120 Z " /><path fill="rgb(247,241,242)" stroke="rgb(247,241,242)" stroke-width="1" opacity="1" d="M 171.5 121 L 169 124.5 L 170 125.5 L 169.5 127 L 168 124.5 L 171.5 121 Z " /><path fill="rgb(247,241,242)" stroke="rgb(247,241,242)" stroke-width="1" opacity="1" d="M 179.5 122 L 179 123.5 L 174.5 130 L 174 127.5 L 176 127.5 L 177 125.5 L 176.5 124 L 178 124.5 L 179.5 122 Z " /><path fill="rgb(247,241,242)" stroke="rgb(247,241,242)" stroke-width="1" opacity="1" d="M 76.5 123 L 77 129.5 L 76 129.5 L 76.5 123 Z " /><path fill="rgb(247,241,242)" stroke="rgb(247,241,242)" stroke-width="1" opacity="1" d="M 96.5 124 L 100 128.5 L 98 127.5 L 96.5 124 Z " /><path fill="rgb(247,241,242)" stroke="rgb(247,241,242)" stroke-width="1" opacity="1" d="M 108.5 125 L 114 127.5 L 111.5 128 L 108.5 125 Z " /><path fill="rgb(247,241,242)" stroke="rgb(247,241,242)" stroke-width="1" opacity="1" d="M 164.5 126 L 166 126.5 Q 165.3 128.8 161.5 128 L 161.5 127 L 164.5 126 Z " /><path fill="rgb(247,241,242)" stroke="rgb(247,241,242)" stroke-width="1" opacity="1" d="M 118.5 128 L 157 128.5 L 118.5 129 L 118.5 128 Z " /><path fill="rgb(247,241,242)" stroke="rgb(247,241,242)" stroke-width="1" opacity="1" d="M 101.5 129 L 108 133.5 L 106.5 134 L 101.5 129 Z " /><path fill="rgb(247,241,242)" stroke="rgb(247,241,242)" stroke-width="1" opacity="1" d="M 172.5 129 L 173 130.5 L 171 131.5 L 172.5 129 Z " /><path fill="rgb(247,241,242)" stroke="rgb(247,241,242)" stroke-width="1" opacity="1" d="M 77.5 132 L 78 134 L 76 133.5 L 77.5 132 Z " /><path fill="rgb(247,241,242)" stroke="rgb(247,241,242)" stroke-width="1" opacity="1" d="M 168.5 132 L 169 134 L 165.5 135 L 165 133 L 168.5 132 Z " /><path fill="rgb(247,241,242)" stroke="rgb(247,241,242)" stroke-width="1" opacity="1" d="M 112 134 Q 116.1 132.7 115 136 Q 110.9 137.3 112 134 Z " /><path fill="rgb(247,241,242)" stroke="rgb(247,241,242)" stroke-width="1" opacity="1" d="M 161.5 134 L 164 134.5 L 160.5 136 L 161.5 134 Z " /><path fill="rgb(247,241,242)" stroke="rgb(247,241,242)" stroke-width="1" opacity="1" d="M 77 136 Q 79.7 134.9 79 137.5 L 83 144 L 90 148.5 L 88.5 149 L 82 143.5 L 78.5 138 L 77 138.5 L 77 136 Z " /><path fill="rgb(247,241,242)" stroke="rgb(247,241,242)" stroke-width="1" opacity="1" d="M 120.5 136 L 152 136.5 L 120.5 137 L 120.5 136 Z " /><path fill="rgb(247,241,242)" stroke="rgb(247,241,242)" stroke-width="1" opacity="1" d="M 194.5 140 L 195 142.5 L 193 141.5 L 194.5 140 Z " /><path fill="rgb(247,241,242)" stroke="rgb(247,241,242)" stroke-width="1" opacity="1" d="M 190.5 145 L 191.5 147 L 190.5 145 Z " /><path fill="rgb(247,241,242)" stroke="rgb(247,241,242)" stroke-width="1" opacity="1" d="M 188.5 146 L 189.5 148 L 188 147.5 L 187.5 149 L 187 147.5 L 188.5 146 Z " /><path fill="rgb(247,241,242)" stroke="rgb(247,241,242)" stroke-width="1" opacity="1" d="M 185.5 148 L 186 150 L 184 149.5 L 185.5 148 Z " /><path fill="rgb(247,241,242)" stroke="rgb(247,241,242)" stroke-width="1" opacity="1" d="M 104.5 152 L 175 152.5 L 144.5 154 L 143.5 153 L 104.5 153 L 104.5 152 Z " /><path fill="rgb(254,254,254)" stroke="rgb(254,254,254)" stroke-width="1" opacity="1" d="M 98.5 24 L 111.5 25 L 112.5 24 L 127.5 24 L 127.5 25 L 112 25.5 L 120.5 27 L 159.5 27 Q 161.3 29.7 167.5 28 L 174 27 Q 173 24 176 25 L 176.5 27 L 180.5 26 L 184 27 Q 186.1 32.2 181.5 31 L 179 32 L 176.5 28 L 172.5 29 L 168.5 28 L 168.5 29 L 171 29.5 L 136.5 30 L 136.5 29 L 144 28.5 L 120.5 28 L 119.5 27 L 112 27 L 111.5 30 L 102.5 30 L 102.5 29 Q 108.3 30.7 107 27 L 102 28 L 100.5 25 L 99 25 Q 100.5 28.8 97.5 28 L 96 28.5 L 97 26.5 L 96.5 25 L 98.5 24 Z M 180 27 L 178 29 L 182 30 L 183 30 L 180 27 Z M 153 28 L 153 29 L 160 29 L 153 28 Z " /><path fill="rgb(254,254,254)" stroke="rgb(254,254,254)" stroke-width="1" opacity="1" d="M 144.5 24 L 152 24.5 L 144.5 25 L 144.5 24 Z " /><path fill="rgb(254,254,254)" stroke="rgb(254,254,254)" stroke-width="1" opacity="1" d="M 160 24 L 169.5 24 L 171 25.5 L 160 26 L 160 24 Z " /><path fill="rgb(254,254,254)" stroke="rgb(254,254,254)" stroke-width="1" opacity="1" d="M 178.5 24 L 181 24.5 L 178.5 25 L 178.5 24 Z " /><path fill="rgb(254,254,254)" stroke="rgb(254,254,254)" stroke-width="1" opacity="1" d="M 96.5 30 L 99 30.5 L 96.5 31 L 96.5 30 Z " /><path fill="rgb(254,254,254)" stroke="rgb(254,254,254)" stroke-width="1" opacity="1" d="M 80 32 L 83.5 33 L 85 32.5 L 80.5 35 L 80 32 Z " /><path fill="rgb(254,254,254)" stroke="rgb(254,254,254)" stroke-width="1" opacity="1" d="M 89.5 32 L 91 32.5 L 88.5 34 L 89.5 32 Z " /><path fill="rgb(254,254,254)" stroke="rgb(254,254,254)" stroke-width="1" opacity="1" d="M 185.5 32 L 186.5 34 L 185.5 32 Z " /><path fill="rgb(254,254,254)" stroke="rgb(254,254,254)" stroke-width="1" opacity="1" d="M 84.5 35 Q 86.8 34.3 86 36.5 L 82 39.5 L 84.5 35 Z " /><path fill="rgb(254,254,254)" stroke="rgb(254,254,254)" stroke-width="1" opacity="1" d="M 81.5 37 L 80.5 39 L 81.5 37 Z " /><path fill="rgb(254,254,254)" stroke="rgb(254,254,254)" stroke-width="1" opacity="1" d="M 73 40 L 77 40.5 L 77 42.5 Q 75.9 45.8 78.5 45 L 77.5 47 L 75.5 42 L 75 45 Q 70.9 46.7 72 42.5 L 73 40 Z " /><path fill="rgb(254,254,254)" stroke="rgb(254,254,254)" stroke-width="1" opacity="1" d="M 197.5 40 Q 199.8 39.3 199 41.5 L 197.5 40 Z " /><path fill="rgb(254,254,254)" stroke="rgb(254,254,254)" stroke-width="1" opacity="1" d="M 80.5 42 L 79.5 44 L 78 43.5 L 80.5 42 Z " /><path fill="rgb(254,254,254)" stroke="rgb(254,254,254)" stroke-width="1" opacity="1" d="M 198.5 43 Q 200.8 42.3 200 44.5 L 197.5 46 L 197.5 45 L 199 44.5 L 198.5 43 Z " /><path fill="rgb(254,254,254)" stroke="rgb(254,254,254)" stroke-width="1" opacity="1" d="M 73.5 46 Q 77.3 44.8 76 48.5 L 77 51.5 L 76 51.5 L 74.5 47 L 74 50.5 L 75 53 L 77 53.5 L 75 56.5 L 76 57.5 L 76 64 Q 73 62.8 74 66.5 L 76 75.5 L 74 74.5 L 73.5 72 L 72 72.5 Q 74.2 71.2 73 66.5 L 72 64 Q 74.7 65.1 74 62.5 L 74 60.5 L 73.5 56 L 72.5 60 L 72 56.5 L 75 55 L 74.5 53 L 73 53.5 L 74 51.5 L 72 51.5 L 73 48.5 Q 70.8 47.3 73.5 46 Z " /><path fill="rgb(254,254,254)" stroke="rgb(254,254,254)" stroke-width="1" opacity="1" d="M 119.5 47 L 125 47.5 L 119.5 48 L 119.5 47 Z " /><path fill="rgb(254,254,254)" stroke="rgb(254,254,254)" stroke-width="1" opacity="1" d="M 128.5 47 L 139 47.5 L 128.5 48 L 128.5 47 Z " /><path fill="rgb(254,254,254)" stroke="rgb(254,254,254)" stroke-width="1" opacity="1" d="M 145.5 47 L 152 47.5 L 149 48.5 L 156.5 50 L 156.5 49 Q 151.7 50.3 153 47 L 155.5 48 Q 157 45.5 158.5 49 L 160 49 L 160 53 L 156.5 54 L 117.5 54 L 115.5 55 L 113 54.5 Q 112.3 52.3 114.5 53 L 114.5 52 L 112 52 Q 113.3 55 109.5 54 L 109.5 55 L 112 55.5 L 109.5 56 L 107.5 56 L 103 54.5 L 103.5 52 L 105.5 52 Q 109.5 52.5 110 49.5 L 110.5 48 L 111 50 L 117.5 48 L 117 49.5 Q 115.5 54.8 120 53 Q 118.2 48.1 124.5 50 L 128 51 L 128.5 49 L 143.5 49 L 145.5 47 Z M 129 51 L 129 52 L 152 52 L 129 51 Z M 126 52 L 126 53 L 128 53 L 126 52 Z " /><path fill="rgb(254,254,254)" stroke="rgb(254,254,254)" stroke-width="1" opacity="1" d="M 159.5 47 L 162 48.5 L 160.5 48 L 159.5 47 Z " /><path fill="rgb(254,254,254)" stroke="rgb(254,254,254)" stroke-width="1" opacity="1" d="M 197.5 47 L 200 48 L 200 53.5 L 198.5 54 L 199 52.5 Q 199.4 47.8 197.5 47 Z " /><path fill="rgb(254,254,254)" stroke="rgb(254,254,254)" stroke-width="1" opacity="1" d="M 166.5 50 L 170 51 L 170.5 53 L 172 52.5 L 171 54.5 Q 173.8 56.2 169.5 58 L 168 57.5 L 170 56.5 L 168.5 55 L 166 56.5 L 168 53.5 Q 170.3 52.3 167.5 51 L 165.5 52 L 166.5 50 Z " /><path fill="rgb(254,254,254)" stroke="rgb(254,254,254)" stroke-width="1" opacity="1" d="M 161.5 52 L 162.5 54 L 161.5 52 Z " /><path fill="rgb(254,254,254)" stroke="rgb(254,254,254)" stroke-width="1" opacity="1" d="M 174.5 55 L 177 59.5 L 176 62.5 L 177 65.5 L 176 65.5 L 175.5 64 L 174 64.5 Q 175.1 61.2 172.5 62 L 172.5 60 Q 170.3 60.8 171 58.5 L 174 58.5 L 174 60.5 Q 173.3 62.8 175.5 62 L 176 59.5 L 174.5 55 Z " /><path fill="rgb(254,254,254)" stroke="rgb(254,254,254)" stroke-width="1" opacity="1" d="M 103 56 L 105 56.5 L 104.5 58 Q 107.1 57.3 106 60 L 102 62.5 L 101 64.5 Q 103.3 65.8 100.5 67 L 100 64.5 L 100.5 63 L 98 62.5 L 103 60.5 L 100 59.5 L 103 57.5 L 103 56 Z " /><path fill="rgb(254,254,254)" stroke="rgb(254,254,254)" stroke-width="1" opacity="1" d="M 179.5 61 L 178.5 63 L 179.5 61 Z " /><path fill="rgb(254,254,254)" stroke="rgb(254,254,254)" stroke-width="1" opacity="1" d="M 160.5 63 L 161 66.5 L 157 69 L 157 66 Q 161.3 67.5 160.5 63 Z " /><path fill="rgb(254,254,254)" stroke="rgb(254,254,254)" stroke-width="1" opacity="1" d="M 96 64 L 98 64.5 L 97 67 L 99 67.5 L 97 68.5 L 98.5 71 L 100.5 68 L 101 69.5 L 100 72 Q 97 70.8 98 74.5 Q 102 78 100 87.5 L 99 87.5 Q 99.8 83.8 97.5 83 Q 94.5 83.7 96 80 L 99 79.5 L 98 75 L 95 76.5 L 94 84.5 L 97 88.5 L 97 93.5 L 95 92.5 L 94.5 88 L 93.5 107 L 93 74.5 L 94 74.5 L 94.5 76 L 95 72 Q 98 73.3 97 69.5 L 96 69.5 L 95.5 71 L 93 67.5 L 96 65.5 L 96 64 Z " /><path fill="rgb(254,254,254)" stroke="rgb(254,254,254)" stroke-width="1" opacity="1" d="M 199.5 64 L 200 71.5 L 199 71.5 L 199.5 64 Z " /><path fill="rgb(254,254,254)" stroke="rgb(254,254,254)" stroke-width="1" opacity="1" d="M 179.5 66 L 180.5 69 L 181.5 67 L 182 69.5 L 182 71.5 L 181 87.5 Q 183.7 89.2 182 95.5 L 181 96.5 L 181 104 L 179 104.5 L 179 111.5 L 181 111.5 L 180 114 L 182 114.5 L 180 122 Q 177.3 123.1 178 120.5 L 178.5 119 L 175.5 120 L 173.5 120 L 172 119.5 Q 175 117.3 174 112 L 177 113.5 L 177.5 115 L 178 112.5 L 177 110 L 175 109.5 L 176 104.5 Q 173.3 102.8 175 96.5 L 176.5 88 L 177 96 L 180 96 L 180 88.5 L 178 79.5 L 180 70.5 L 179.5 66 Z M 177 96 L 176 104 L 177 104 L 177 96 Z " /><path fill="rgb(254,254,254)" stroke="rgb(254,254,254)" stroke-width="1" opacity="1" d="M 163.5 67 L 165.5 67 Q 167.8 66.3 167 68.5 L 165 68.5 L 166 70.5 L 163.5 69 L 162 70.5 L 162.5 72 L 159.5 71 L 158 71.5 Q 157.3 69.3 159.5 70 L 162 69.5 L 163.5 67 Z " /><path fill="rgb(254,254,254)" stroke="rgb(254,254,254)" stroke-width="1" opacity="1" d="M 174.5 67 L 177 67.5 L 176 71 Q 172.2 72.2 174.5 67 Z " /><path fill="rgb(254,254,254)" stroke="rgb(254,254,254)" stroke-width="1" opacity="1" d="M 132.5 69 L 138 72 L 138.5 74 L 140.5 73 L 140.5 74 L 139 74.5 L 139.5 76 Q 133.2 75.2 130.5 78 L 128 77 L 125.5 81 L 124 80.5 L 126 80 Q 127.1 77.3 124.5 78 Q 123.3 80.3 122 77.5 L 121 75.5 L 122.5 76 Q 124.8 73.3 130.5 74 L 133.5 76 L 137 73.5 L 135.5 73 L 132.5 74 L 126 73 L 126.5 71 L 130.5 71 L 134 70.5 L 132.5 69 Z M 129 75 L 130 76 L 131 77 Q 132 74 129 75 Z " /><path fill="rgb(254,254,254)" stroke="rgb(254,254,254)" stroke-width="1" opacity="1" d="M 139.5 69 L 144 70.5 L 141.5 71 L 139.5 69 Z " /><path fill="rgb(254,254,254)" stroke="rgb(254,254,254)" stroke-width="1" opacity="1" d="M 148.5 72 L 151 73.5 L 149.5 74 L 148.5 72 Z " /><path fill="rgb(254,254,254)" stroke="rgb(254,254,254)" stroke-width="1" opacity="1" d="M 177.5 72 L 178 77.5 L 175.5 84 L 175 80.5 L 177.5 72 Z " /><path fill="rgb(254,254,254)" stroke="rgb(254,254,254)" stroke-width="1" opacity="1" d="M 142.5 74 L 144.5 77 L 146.5 76 L 148.5 77 L 151 75.5 L 147.5 78 L 145.5 77 L 143.5 77 Q 140.2 78.1 141 75.5 L 142.5 74 Z " /><path fill="rgb(254,254,254)" stroke="rgb(254,254,254)" stroke-width="1" opacity="1" d="M 73.5 76 L 74 79.5 L 73 81.5 L 74.5 85 L 76 84.5 Q 77 89.5 74 88.5 L 74 111.5 L 72.5 118 L 72 104.5 L 73 102.5 L 72 101.5 L 72 88.5 L 72 86.5 Q 70.9 79.4 73.5 76 Z " /><path fill="rgb(254,254,254)" stroke="rgb(254,254,254)" stroke-width="1" opacity="1" d="M 152.5 76 Q 152.3 80.7 155.5 82 L 156 80.5 L 155.5 79 L 158 80.5 L 156 83.5 Q 158 87.2 160 85.5 L 157.5 87 L 156 86.5 L 157 89.5 L 155 92.5 L 156 94.5 L 152.5 96 L 153 94.5 L 152 86.5 L 153 86.5 L 153.5 88 Q 155.8 87.3 155 83.5 L 154 83.5 L 153.5 85 L 152.5 80 L 151.5 83 L 147 79.5 L 149.5 81 L 151 80.5 L 150.5 79 Q 153.4 79.7 152.5 76 Z " /><path fill="rgb(254,254,254)" stroke="rgb(254,254,254)" stroke-width="1" opacity="1" d="M 75.5 78 L 76 81.5 L 75 81.5 L 75.5 78 Z " /><path fill="rgb(254,254,254)" stroke="rgb(254,254,254)" stroke-width="1" opacity="1" d="M 118.5 80 L 121 80.5 L 120 82.5 L 122 85.5 L 120 85.5 L 120 87 L 122 87.5 L 122 92.5 L 122 94.5 L 121.5 96 Q 118 94.7 119 90 L 115 91 L 115 86 L 116.5 86 L 116.5 88 L 120 87.5 L 119 85.5 L 120 83.5 L 118 82.5 L 117.5 85 L 117 81.5 L 118.5 80 Z " /><path fill="rgb(254,254,254)" stroke="rgb(254,254,254)" stroke-width="1" opacity="1" d="M 199.5 80 L 200 86.5 L 199 86.5 L 199.5 80 Z " /><path fill="rgb(254,254,254)" stroke="rgb(254,254,254)" stroke-width="1" opacity="1" d="M 122.5 81 L 125 82.5 L 122.5 84 L 122.5 81 Z " /><path fill="rgb(254,254,254)" stroke="rgb(254,254,254)" stroke-width="1" opacity="1" d="M 199.5 88 L 200 90.5 L 199 90.5 L 199.5 88 Z " /><path fill="rgb(254,254,254)" stroke="rgb(254,254,254)" stroke-width="1" opacity="1" d="M 75.5 90 L 76 112.5 L 75 112.5 L 75.5 90 Z " /><path fill="rgb(254,254,254)" stroke="rgb(254,254,254)" stroke-width="1" opacity="1" d="M 115.5 94 L 122 98 Q 120.9 100.7 123.5 100 L 124.5 102 L 122.5 103 L 120 101.5 L 119.5 103 L 118.5 100 L 117 100.5 L 117.5 98 L 119 98.5 L 117.5 96 Q 115.3 95.3 116 97.5 L 115 97.5 L 116 95.5 L 115.5 94 Z " /><path fill="rgb(254,254,254)" stroke="rgb(254,254,254)" stroke-width="1" opacity="1" d="M 157.5 94 L 158.5 96 L 160 95.5 Q 160.8 97.8 158.5 97 L 158.5 99 L 157 99.5 L 158 101.5 L 156 100.5 L 155.5 99 L 154.5 102 Q 152.3 101.3 153 103.5 L 155 104.5 L 155.5 103 L 156 104.5 Q 154.2 108.7 152.5 106 L 150.5 107 L 147.5 106 L 147.5 108 L 146 107.5 Q 144.5 111.9 147.5 111 L 149.5 108 L 150 109.5 L 145.5 113 L 145 111 L 139.5 110 L 132.5 114 L 128 112 Q 129.3 109 125.5 110 L 122.5 106 L 121 106.5 L 124 104.5 L 123.5 106 L 127 105 L 126.5 107 Q 125.3 104.8 124 107.5 L 127.5 109 L 129.5 108 L 129.5 109 L 128 109.5 L 130 110 L 130 112 L 135 112 L 133.5 108 L 132.5 111 L 131 108 L 133 107.5 L 129 105.5 L 130.5 105 L 138.5 108 L 140 107.5 Q 138.7 112.1 144.5 110 L 142.5 107 L 141 106.5 L 147.5 103 L 147.5 105 L 151 103.5 L 149 102.5 L 151 101.5 L 151.5 103 L 152 99.5 L 151.5 98 Q 153.3 101.7 155 98.5 L 153 97.5 L 154.5 97 L 157 98.5 L 156 96.5 L 157.5 94 Z " /><path fill="rgb(254,254,254)" stroke="rgb(254,254,254)" stroke-width="1" opacity="1" d="M 97 96 L 99 96.5 L 99 108.5 L 98 108.5 L 97 96 Z " /><path fill="rgb(254,254,254)" stroke="rgb(254,254,254)" stroke-width="1" opacity="1" d="M 199.5 96 L 200 98.5 L 199 98.5 L 199.5 96 Z " /><path fill="rgb(254,254,254)" stroke="rgb(254,254,254)" stroke-width="1" opacity="1" d="M 180.5 106 L 181 109.5 L 180 109.5 L 180.5 106 Z " /><path fill="rgb(254,254,254)" stroke="rgb(254,254,254)" stroke-width="1" opacity="1" d="M 95.5 107 L 96.5 112 L 97.5 110 L 98 111.5 L 97 113.5 L 99 113.5 L 96 115 Q 94.4 119.9 100 118 L 100.5 116 L 102 118.5 L 99.5 119 L 96 119.5 L 99 120 L 98 122.5 L 102 123 L 102.5 121 L 103.5 124 L 105 124.5 L 102 125.5 L 103.5 128 L 104 126 Q 107.3 124.9 106 129 L 100 128.5 Q 102.3 127.3 99.5 126 L 96 123.5 L 97 121 Q 93.7 122.3 95 117.5 L 95 115.5 L 94.5 112 L 93.5 115 L 93 112.5 Q 95.8 111.3 95.5 107 Z " /><path fill="rgb(254,254,254)" stroke="rgb(254,254,254)" stroke-width="1" opacity="1" d="M 199.5 108 L 200 111.5 L 199 111.5 L 199.5 108 Z " /><path fill="rgb(254,254,254)" stroke="rgb(254,254,254)" stroke-width="1" opacity="1" d="M 143.5 112 L 142.5 114 L 143.5 112 Z " /><path fill="rgb(254,254,254)" stroke="rgb(254,254,254)" stroke-width="1" opacity="1" d="M 137.5 113 L 140 113.5 L 137.5 114 L 137.5 113 Z " /><path fill="rgb(254,254,254)" stroke="rgb(254,254,254)" stroke-width="1" opacity="1" d="M 75.5 116 L 76 127.5 L 75 127.5 L 75.5 116 Z " /><path fill="rgb(254,254,254)" stroke="rgb(254,254,254)" stroke-width="1" opacity="1" d="M 199.5 116 L 200 119.5 L 199 119.5 L 199.5 116 Z " /><path fill="rgb(254,254,254)" stroke="rgb(254,254,254)" stroke-width="1" opacity="1" d="M 73.5 120 L 74 126.5 L 73 126.5 L 73.5 120 Z " /><path fill="rgb(254,254,254)" stroke="rgb(254,254,254)" stroke-width="1" opacity="1" d="M 175.5 121 L 176 123 Q 178.7 121.9 178 124.5 L 175.5 126 L 174 125.5 L 173.5 130 L 173 128 L 169 129.5 L 170.5 130 L 172 129.5 L 169.5 133 L 168.5 130 L 162 132.5 L 165 133.5 L 162.5 134 L 160.5 131 L 162 130.5 L 160 130 L 160.5 128 L 165 129 L 165.5 131 L 169 128.5 L 167.5 126 L 166 126.5 L 171.5 122 L 172 123.5 L 171 125.5 L 172.5 125 L 175 123.5 L 175.5 121 Z M 170 125 L 169 128 L 170 128 L 170 125 Z " /><path fill="rgb(254,254,254)" stroke="rgb(254,254,254)" stroke-width="1" opacity="1" d="M 199.5 125 L 200 127.5 L 199 127.5 L 199.5 125 Z " /><path fill="rgb(254,254,254)" stroke="rgb(254,254,254)" stroke-width="1" opacity="1" d="M 108.5 127 L 113.5 130 L 117 130 L 117.5 128 L 118.5 129 L 156.5 129 L 158 128.5 Q 156.6 131.3 152 130 Q 150.7 133.7 156.5 132 L 156.5 133 L 144 132 L 144.5 135 L 156.5 135 L 156.5 136 L 144.5 136 L 143.5 135 L 128 133.5 L 136 132.5 L 120.5 131 L 117 132.5 L 120 134.5 L 117.5 136 L 115 135.5 Q 115.8 132.9 112.5 134 L 108 131.5 L 109.5 132 L 114 131.5 Q 112.8 128.8 111.5 131 L 108.5 127 Z M 129 130 L 129 131 L 144 132 L 144 130 L 129 130 Z " /><path fill="rgb(254,254,254)" stroke="rgb(254,254,254)" stroke-width="1" opacity="1" d="M 72.5 128 Q 75.3 129.4 74 134 L 78 134.5 L 76 135.5 L 77 137.5 L 76 137.5 Q 76.8 135.3 74.5 136 L 73 134.5 L 72.5 128 Z " /><path fill="rgb(254,254,254)" stroke="rgb(254,254,254)" stroke-width="1" opacity="1" d="M 107.5 129 L 107 130.5 Q 107.8 133.1 104.5 132 L 103.5 130 L 105.5 130 L 107.5 129 Z " /><path fill="rgb(254,254,254)" stroke="rgb(254,254,254)" stroke-width="1" opacity="1" d="M 75 130 Q 77.7 128.9 77 131.5 L 75 132.5 L 75 130 Z " /><path fill="rgb(254,254,254)" stroke="rgb(254,254,254)" stroke-width="1" opacity="1" d="M 198.5 130 Q 201.3 131.3 199 132.5 L 198.5 134 L 198.5 130 Z " /><path fill="rgb(254,254,254)" stroke="rgb(254,254,254)" stroke-width="1" opacity="1" d="M 196.5 136 L 200 137 L 198 142.5 L 200 142.5 L 196.5 144 L 195 143.5 L 197 140.5 L 195 139.5 L 196.5 136 Z " /><path fill="rgb(254,254,254)" stroke="rgb(254,254,254)" stroke-width="1" opacity="1" d="M 72.5 138 L 73.5 141 L 74.5 139 L 77.5 143 L 78.5 141 L 82 142.5 L 80 143.5 L 87 147.5 L 80.5 150 L 80.5 147 L 82 147.5 Q 82.7 144.9 80 146 L 80 144 L 74.5 144 L 72 143 L 72.5 138 Z " /><path fill="rgb(254,254,254)" stroke="rgb(254,254,254)" stroke-width="1" opacity="1" d="M 78.5 138 L 79 140 L 77 139.5 L 78.5 138 Z " /><path fill="rgb(254,254,254)" stroke="rgb(254,254,254)" stroke-width="1" opacity="1" d="M 191.5 144 L 192 145.5 L 192 147.5 Q 192.8 149.8 190.5 149 L 191 150.5 L 190.5 152 L 187.5 150 L 186.5 152 L 183 150.5 L 187 149.5 L 186.5 148 L 188 148.5 L 188.5 147 L 189.5 149 L 191.5 144 Z " /><path fill="rgb(254,254,254)" stroke="rgb(254,254,254)" stroke-width="1" opacity="1" d="M 85.5 149 Q 87.8 148.3 87 150.5 L 88 150.5 L 88.5 149 L 90.5 152 L 88.5 152 L 84.5 151 Q 83.3 153.3 82 150.5 L 85.5 149 Z " /><path fill="rgb(254,254,254)" stroke="rgb(254,254,254)" stroke-width="1" opacity="1" d="M 175.5 152 L 176 156.5 Q 176.9 159.5 172.5 158 L 172.5 159 L 175 159.5 L 152.5 160 L 151.5 159 L 136.5 159 L 135.5 160 L 112.5 160 L 112.5 159 L 135.5 159 L 136.5 157 L 159.5 157 L 171 154.5 L 152 153.5 L 174.5 153 L 175.5 152 Z M 169 156 L 169 157 L 171 157 L 169 156 Z M 161 158 L 161 159 L 168 159 L 161 158 Z " /><path fill="rgb(254,254,254)" stroke="rgb(254,254,254)" stroke-width="1" opacity="1" d="M 104.5 153 L 144 153.5 L 136 154 L 135.5 156 L 112.5 156 L 111.5 157 L 104 157 L 104.5 155 L 111.5 155 L 111.5 154 L 104.5 154 L 104.5 153 Z " /><path fill="rgb(254,254,254)" stroke="rgb(254,254,254)" stroke-width="1" opacity="1" d="M 144.5 155 L 152 155.5 L 144.5 156 L 144.5 155 Z " /><path fill="rgb(255,255,255)" stroke="rgb(255,255,255)" stroke-width="1" opacity="1" d="M 0 0 L 275 0 L 275 183 L 0 183 L 0 0 Z M 99 24 L 97 25 L 96 28 L 97 29 L 99 28 L 101 28 L 105 27 Q 108 26 107 29 L 101 30 L 99 30 L 96 30 L 96 32 L 90 32 L 89 35 L 85 34 L 83 37 Q 85 38 83 39 L 82 36 L 80 39 Q 79 41 82 40 L 81 42 L 80 41 L 79 41 Q 80 44 78 43 L 76 43 L 78 49 L 76 49 L 77 53 L 75 53 L 76 56 L 75 55 L 73 56 L 74 61 L 74 63 Q 75 65 72 64 Q 74 66 73 72 L 76 77 L 75 79 L 76 83 L 75 85 L 73 82 L 74 80 L 74 76 Q 71 79 72 87 L 72 89 L 72 102 L 73 103 L 72 105 L 73 118 L 74 112 L 74 89 L 76 88 L 75 91 L 75 128 L 76 129 L 75 133 L 77 133 L 74 134 L 74 120 L 72 129 L 73 135 L 75 136 L 77 135 L 78 136 L 76 136 L 77 140 L 80 139 L 80 142 L 79 141 L 78 143 L 75 139 L 74 141 L 73 139 L 72 139 Q 71 143 74 144 L 80 144 L 80 146 L 82 146 L 83 146 L 82 148 L 80 148 L 81 150 Q 83 147 88 148 L 88 151 L 87 149 L 82 151 Q 83 153 85 151 L 89 152 L 90 149 L 97 152 Q 105 151 105 154 L 112 154 L 112 155 L 105 155 L 104 157 L 112 157 L 113 156 L 136 156 L 136 154 L 171 155 L 168 156 L 171 156 L 171 157 L 168 156 Q 161 154 160 157 L 137 157 L 136 159 L 152 159 L 153 160 L 175 160 L 173 159 L 173 158 Q 177 159 176 157 L 175 154 L 177 152 Q 181 153 183 151 L 186 152 L 190 151 L 191 152 L 189 149 L 192 150 L 192 144 L 194 144 L 195 140 L 197 141 L 195 144 L 197 144 L 200 138 L 197 137 L 197 134 Q 200 135 199 133 L 199 131 L 200 126 L 199 123 L 200 120 L 199 116 L 200 112 L 199 108 L 199 100 L 200 99 L 199 96 L 200 89 L 200 87 Q 202 81 199 80 Q 197 73 200 72 Q 202 65 199 64 Q 197 57 200 56 Q 202 49 199 48 Q 200 44 198 45 L 198 47 L 196 47 L 194 43 L 195 41 Q 193 42 191 39 L 192 37 L 190 35 L 190 37 Q 187 36 189 35 L 187 33 L 187 35 L 183 33 L 182 31 Q 186 32 184 27 L 176 25 Q 173 24 174 27 L 168 28 L 172 28 L 172 29 L 168 28 Q 161 26 160 29 L 152 29 L 160 28 L 160 27 L 120 28 L 144 29 L 136 30 L 113 30 L 112 27 L 120 27 L 99 24 Z M 113 24 L 113 25 L 128 25 L 113 24 Z M 145 24 L 145 25 L 152 25 L 145 24 Z M 160 24 L 160 26 L 171 26 L 170 24 L 160 24 Z M 179 24 L 179 25 L 181 25 L 179 24 Z M 80 32 L 81 36 L 84 34 L 80 32 Z M 87 33 L 87 34 L 89 34 L 87 33 Z M 73 40 Q 71 43 72 52 L 74 51 L 74 53 L 75 53 L 74 49 L 76 49 L 76 46 L 73 46 L 75 45 Q 74 42 77 41 L 73 40 Z M 197 40 L 198 44 L 200 45 L 199 43 Q 200 39 197 40 Z M 196 42 L 196 45 L 197 45 Q 198 41 196 42 Z M 73 56 L 72 60 L 73 60 L 73 56 Z M 145 155 L 145 156 L 152 156 L 145 155 Z M 113 159 L 113 160 L 136 160 L 113 159 Z " /><path fill="rgb(255,255,255)" stroke="rgb(255,255,255)" stroke-width="1" opacity="1" d="M 176.5 28 L 178.5 31 L 174 30.5 L 176 30 L 176.5 28 Z " /><path fill="rgb(255,255,255)" stroke="rgb(255,255,255)" stroke-width="1" opacity="1" d="M 180.5 28 L 183 29.5 L 181.5 30 L 180.5 28 Z " /><path fill="rgb(255,255,255)" stroke="rgb(255,255,255)" stroke-width="1" opacity="1" d="M 115.5 47 L 119 47.5 L 112 50 Q 110.8 47 114.5 48 L 115.5 47 Z " /><path fill="rgb(255,255,255)" stroke="rgb(255,255,255)" stroke-width="1" opacity="1" d="M 125.5 47 Q 130.2 49.2 138.5 48 Q 139.7 45.7 144.5 47 L 143.5 49 L 128.5 49 L 127.5 50 L 120 50 Q 121.5 54.5 117 53 Q 114.9 47.8 119.5 49 L 125.5 47 Z " /><path fill="rgb(255,255,255)" stroke="rgb(255,255,255)" stroke-width="1" opacity="1" d="M 157.5 47 L 164.5 50 L 164.5 48 L 168 49.5 L 165 51.5 L 170 53.5 L 168.5 56 L 163 54 L 162.5 56 L 156 52.5 L 157.5 53 L 162.5 54 L 161.5 52 L 160 52 Q 161.5 48.3 158.5 49 L 157.5 47 Z " /><path fill="rgb(255,255,255)" stroke="rgb(255,255,255)" stroke-width="1" opacity="1" d="M 149.5 48 L 157 49.5 L 152.5 50 L 149.5 49 L 149.5 48 Z " /><path fill="rgb(255,255,255)" stroke="rgb(255,255,255)" stroke-width="1" opacity="1" d="M 197.5 48 Q 199.8 48.8 199 52.5 L 198 52.5 L 197.5 48 Z " /><path fill="rgb(255,255,255)" stroke="rgb(255,255,255)" stroke-width="1" opacity="1" d="M 108.5 49 L 110 49.5 L 104.5 52 L 104.5 51 L 108.5 49 Z " /><path fill="rgb(255,255,255)" stroke="rgb(255,255,255)" stroke-width="1" opacity="1" d="M 169.5 50 L 170.5 52 L 169.5 50 Z " /><path fill="rgb(255,255,255)" stroke="rgb(255,255,255)" stroke-width="1" opacity="1" d="M 128.5 51 L 151.5 51 L 154 52.5 L 152.5 53 L 151.5 52 L 128.5 52 L 125.5 53 L 125.5 52 L 128.5 51 Z " /><path fill="rgb(255,255,255)" stroke="rgb(255,255,255)" stroke-width="1" opacity="1" d="M 112.5 52 L 115 52.5 L 112.5 53 L 112.5 52 Z " /><path fill="rgb(255,255,255)" stroke="rgb(255,255,255)" stroke-width="1" opacity="1" d="M 172.5 52 Q 175.3 53.4 174 58 L 171.5 57 L 170 59.5 L 172 60 Q 171 63 174 62 L 174 64.5 L 176 63.5 L 174 59.5 L 176 58.5 L 175 60.5 L 178.5 63 L 180 62.5 L 179.5 64 Q 182.9 63.1 181 68.5 L 180 68.5 L 179.5 66 L 179 78.5 L 178 79.5 L 179 80.5 L 180 96 L 177 96 L 177 103.5 L 175.5 109 L 175 104.5 Q 177.8 102.8 176 96.5 Q 173.3 94.8 175 88.5 Q 177.8 86.8 176 80.5 L 175 76.5 L 175 74.5 L 174 72.5 L 176 72 L 176 68.5 L 167 57.5 L 168.5 58 L 173 54.5 L 172.5 52 Z M 178 72 L 176 78 L 177 80 L 178 78 L 178 72 Z M 177 88 L 176 96 L 177 96 L 177 88 Z " /><path fill="rgb(255,255,255)" stroke="rgb(255,255,255)" stroke-width="1" opacity="1" d="M 100.5 54 L 107.5 56 L 111.5 54 L 111.5 55 L 109 55.5 L 109.5 57 L 107.5 58 L 105.5 57 L 104 57.5 L 104.5 56 Q 102.3 55.3 103 57.5 L 100 59 Q 101.5 62.7 98.5 62 L 98.5 63 Q 101.5 62.1 100 66.5 Q 102.5 68 99 69.5 L 98.5 71 L 98 68.5 L 98.5 67 Q 96.3 67.8 97 65.5 L 97 63.5 L 98 60.5 L 96 59.5 L 100.5 54 Z M 101 55 L 99 57 L 100 59 L 102 56 L 101 55 Z " /><path fill="rgb(255,255,255)" stroke="rgb(255,255,255)" stroke-width="1" opacity="1" d="M 117.5 54 L 120 54.5 L 117.5 55 L 117.5 54 Z " /><path fill="rgb(255,255,255)" stroke="rgb(255,255,255)" stroke-width="1" opacity="1" d="M 177.5 57 L 179 59.5 L 177 58.5 L 177.5 57 Z " /><path fill="rgb(255,255,255)" stroke="rgb(255,255,255)" stroke-width="1" opacity="1" d="M 101.5 60 L 103.5 61 L 105 60.5 L 101.5 65 L 102 63.5 L 103 61.5 L 101.5 60 Z " /><path fill="rgb(255,255,255)" stroke="rgb(255,255,255)" stroke-width="1" opacity="1" d="M 160.5 62 L 163 62.5 L 160 63 Q 161.5 66.7 158.5 66 L 157.5 64 L 159 64.5 L 160.5 62 Z " /><path fill="rgb(255,255,255)" stroke="rgb(255,255,255)" stroke-width="1" opacity="1" d="M 94.5 63 L 96 65.5 L 94 66.5 L 95 64.5 L 94.5 63 Z " /><path fill="rgb(255,255,255)" stroke="rgb(255,255,255)" stroke-width="1" opacity="1" d="M 75.5 64 L 76 71.5 L 75 71.5 L 75.5 64 Z " /><path fill="rgb(255,255,255)" stroke="rgb(255,255,255)" stroke-width="1" opacity="1" d="M 162.5 64 L 164 64.5 L 162 69.5 L 164 69.5 L 165 71.5 L 163.5 72 L 161 71.5 Q 163.3 70.3 160.5 69 L 157.5 70 L 157.5 69 L 161 66.5 L 162.5 64 Z " /><path fill="rgb(255,255,255)" stroke="rgb(255,255,255)" stroke-width="1" opacity="1" d="M 164.5 66 L 167 66.5 L 164.5 67 L 164.5 66 Z " /><path fill="rgb(255,255,255)" stroke="rgb(255,255,255)" stroke-width="1" opacity="1" d="M 93.5 68 L 94.5 72 L 96.5 69 L 97 72 Q 93.7 70.7 95 75.5 L 96.5 75 Q 99.5 75.7 98 72 L 100 72 L 99.5 77 L 98.5 75 L 98 80 Q 94.7 78.9 96 83 L 99 84.5 L 100 88.5 L 100 117.5 Q 103 118.8 102 123 Q 97.9 124.7 99 120.5 L 100 118 Q 96.7 119.3 98 114.5 Q 95.3 112.3 95.5 107 L 94.5 111 L 94 88.5 L 95 88.5 Q 94 93 96.5 94 L 97 88.5 Q 93.1 86.9 94 80.5 L 95 76.5 Q 91.6 74 93.5 68 Z M 97 96 L 97 104 L 98 105 Q 99 109 97 111 L 98 114 L 99 114 L 99 97 L 97 96 Z " /><path fill="rgb(255,255,255)" stroke="rgb(255,255,255)" stroke-width="1" opacity="1" d="M 134.5 69 L 144.5 71 L 146 70.5 L 145.5 72 L 147.5 71 L 147.5 73 L 149.5 72 L 149.5 74 L 153 74 Q 151.9 76.7 154.5 76 L 154.5 78 L 156 78.5 L 156 80.5 Q 155.3 82.8 157.5 82 L 159 85 L 156 83.5 L 155 80 Q 151.3 78.7 153 84.5 L 154 84.5 L 154.5 83 L 155 86.5 L 153 87.5 L 151 83.5 L 152 82.5 L 150.5 80 Q 152.3 82.8 154 78.5 L 152.5 76 L 151.5 79 L 148.5 80 L 144 76.5 Q 146.3 75.3 143.5 74 L 140.5 76 L 139.5 74 L 141 73.5 L 134.5 70 L 130.5 71 L 130.5 70 L 134.5 69 Z M 148 77 L 149 79 Q 150 76 148 77 Z " /><path fill="rgb(255,255,255)" stroke="rgb(255,255,255)" stroke-width="1" opacity="1" d="M 125.5 72 L 126.5 74 L 120.5 77 L 120.5 76 L 125 74 L 125.5 72 Z " /><path fill="rgb(255,255,255)" stroke="rgb(255,255,255)" stroke-width="1" opacity="1" d="M 128.5 73 L 134.5 74 L 136.5 73 L 135.5 75 L 128.5 76 L 128.5 75 L 131 74.5 Q 127.7 74.6 128.5 73 Z " /><path fill="rgb(255,255,255)" stroke="rgb(255,255,255)" stroke-width="1" opacity="1" d="M 129.5 77 L 127.5 80 L 129.5 77 Z " /><path fill="rgb(255,255,255)" stroke="rgb(255,255,255)" stroke-width="1" opacity="1" d="M 119.5 78 L 121.5 78 L 123 78.5 L 122.5 80 Q 125.1 80.7 124 78 L 126 78 L 126 80 Q 123.3 78.9 124 81.5 L 120 87.5 L 121 89.5 L 120 89.5 Q 120.8 87.3 118.5 88 L 116 87.5 L 117 85.5 L 116 83.5 L 117 83.5 L 117.5 85 L 118.5 82 L 120 82.5 L 119 80.5 L 119.5 78 Z " /><path fill="rgb(255,255,255)" stroke="rgb(255,255,255)" stroke-width="1" opacity="1" d="M 181.5 80 L 182 87.5 L 181 87.5 L 181.5 80 Z " /><path fill="rgb(255,255,255)" stroke="rgb(255,255,255)" stroke-width="1" opacity="1" d="M 156.5 86 L 157.5 88 L 160 86.5 L 159 88.5 Q 161.3 89.8 160 94.5 L 158 95.5 L 157.5 94 L 155 98.5 L 157 103.5 L 155 103.5 L 152.5 108 L 151 107.5 L 149.5 111 L 146 110 L 147.5 106 L 150.5 107 L 153 105.5 L 152.5 104 L 154 104.5 L 155 99.5 L 152 98.5 Q 150.9 95.2 153.5 96 L 153 97.5 L 153.5 99 Q 156.7 96.7 156 90.5 L 154 90.5 L 156.5 86 Z M 149 108 L 150 110 Q 151 107 149 108 Z " /><path fill="rgb(255,255,255)" stroke="rgb(255,255,255)" stroke-width="1" opacity="1" d="M 117.5 90 Q 120.3 89.4 119 95.5 L 121.5 96 L 123 96.5 L 122.5 98 L 124 98.5 L 122 99.5 Q 122.8 97.3 120.5 98 L 118 96.5 L 116.5 99 L 116 97.5 Q 120 95.5 116 93.5 L 117.5 90 Z " /><path fill="rgb(255,255,255)" stroke="rgb(255,255,255)" stroke-width="1" opacity="1" d="M 120.5 91 L 122 93.5 L 120 92.5 L 120.5 91 Z " /><path fill="rgb(255,255,255)" stroke="rgb(255,255,255)" stroke-width="1" opacity="1" d="M 181.5 96 L 182 113.5 L 181 113.5 L 180.5 106 L 179.5 112 L 179 104 L 181 103.5 L 181.5 96 Z " /><path fill="rgb(255,255,255)" stroke="rgb(255,255,255)" stroke-width="1" opacity="1" d="M 118.5 100 L 119.5 104 L 120.5 101 L 123.5 105 L 124 102 L 127 103.5 L 123.5 106 L 121.5 105 Q 119.8 107.8 118 103.5 L 117 101.5 L 118.5 100 Z " /><path fill="rgb(255,255,255)" stroke="rgb(255,255,255)" stroke-width="1" opacity="1" d="M 128.5 104 L 129 106 L 133 107.5 L 130.5 109 L 127 108 L 128.5 104 Z " /><path fill="rgb(255,255,255)" stroke="rgb(255,255,255)" stroke-width="1" opacity="1" d="M 125.5 106 L 126 108 L 124 108.5 L 124.5 110 L 122.5 107 Q 124 109.5 125.5 106 Z " /><path fill="rgb(255,255,255)" stroke="rgb(255,255,255)" stroke-width="1" opacity="1" d="M 140.5 107 L 144 108.5 L 140 110.5 L 144 111.5 Q 142.3 115.8 140.5 113 L 134.5 114 L 134.5 112 L 129.5 113 L 130 111.5 Q 129.3 109.3 131.5 110 L 133.5 109 L 133.5 110 L 132 110.5 L 137.5 112 L 142 108.5 L 140.5 107 Z " /><path fill="rgb(255,255,255)" stroke="rgb(255,255,255)" stroke-width="1" opacity="1" d="M 175 110 Q 177.7 108.9 177 111.5 L 178 114.5 L 176 115.5 L 177 113.5 L 175 110 Z " /><path fill="rgb(255,255,255)" stroke="rgb(255,255,255)" stroke-width="1" opacity="1" d="M 94.5 112 L 95 115.5 L 94 115.5 L 94.5 112 Z " /><path fill="rgb(255,255,255)" stroke="rgb(255,255,255)" stroke-width="1" opacity="1" d="M 96.5 115 L 97 117.5 L 96 117.5 L 96.5 115 Z " /><path fill="rgb(255,255,255)" stroke="rgb(255,255,255)" stroke-width="1" opacity="1" d="M 174.5 119 L 178 120 L 179 122.5 L 176 123 L 174.5 120 L 173.5 122 Q 175.8 121.3 175 123.5 L 174 124.5 L 175.5 127 L 172.5 125 L 171 125.5 L 172 120 L 174.5 119 Z " /><path fill="rgb(255,255,255)" stroke="rgb(255,255,255)" stroke-width="1" opacity="1" d="M 96.5 121 L 99 124.5 L 96 122.5 L 96.5 121 Z " /><path fill="rgb(255,255,255)" stroke="rgb(255,255,255)" stroke-width="1" opacity="1" d="M 103.5 123 L 111 127.5 L 107 129.5 L 110.5 130 Q 112 126.7 117 128 Q 118.3 131.3 113.5 130 L 113.5 132 L 109 132.5 L 112 133 L 111.5 135 L 106 132.5 L 109 131.5 L 105.5 130 L 103.5 130 L 102 129.5 L 109 127.5 L 105 125.5 Q 105.8 123.3 103.5 124 L 103.5 123 Z " /><path fill="rgb(255,255,255)" stroke="rgb(255,255,255)" stroke-width="1" opacity="1" d="M 102.5 125 Q 105.1 124.2 104 127.5 L 103 127.5 L 102.5 125 Z " /><path fill="rgb(255,255,255)" stroke="rgb(255,255,255)" stroke-width="1" opacity="1" d="M 99.5 126 L 100.5 128 Q 97.7 128.7 99.5 126 Z " /><path fill="rgb(255,255,255)" stroke="rgb(255,255,255)" stroke-width="1" opacity="1" d="M 165.5 127 Q 169.3 125.8 168 129.5 L 170 128.5 L 169.5 127 L 173 128.5 L 171 129.5 L 171.5 131 L 169 130 L 167.5 133 L 162.5 133 Q 162 136.5 157.5 136 L 156.5 135 L 144.5 135 L 143.5 136 L 128.5 136 L 126.5 135 Q 124.8 137.8 118.5 136 L 118.5 135 L 120 134.5 L 117 132.5 L 128.5 130 L 144 130 L 144.5 132 L 152 132 Q 150.7 128.3 156.5 130 L 160 128 L 160 133 L 161.5 133 L 168 130.5 L 161 128.5 L 165.5 127 Z M 129 131 L 129 132 L 136 132 L 129 131 Z M 137 132 L 128 134 L 144 135 L 144 132 L 137 132 Z M 153 132 L 153 133 L 157 133 L 153 132 Z " /><path fill="rgb(255,255,255)" stroke="rgb(255,255,255)" stroke-width="1" opacity="1" d="M 160.5 158 L 168 158.5 L 160.5 159 L 160.5 158 Z " /><path fill="rgb(115,70,198)" stroke="rgb(115,70,198)" stroke-width="1" opacity="1" d="M 98.5 31 L 175.5 31 L 176 33 L 177.5 33 L 179 32.5 L 180 37 L 182 37.5 L 180.5 38 L 178.5 37 L 175.5 38 L 168.5 42 L 165.5 41 L 164.5 44 L 160.5 43 L 158 44 L 158.5 46 Q 159.8 43.8 161 46.5 L 158.5 47 L 155.5 46 L 122.5 46 L 121.5 47 L 112.5 47 L 106.5 49 L 98 55.5 L 94.5 61 Q 90.8 59.8 92 63.5 L 90.5 66 L 88.5 63 L 80.5 65 L 79 64.5 L 78.5 66 L 77 63.5 L 77 51.5 Q 79.1 42.1 85.5 37 Q 90.3 32.3 98.5 31 Z " /><path fill="rgb(115,70,198)" stroke="rgb(115,70,198)" stroke-width="1" opacity="1" d="M 180.5 32 L 183 33.5 L 181.5 34 L 180.5 32 Z " /><path fill="rgb(115,70,198)" stroke="rgb(115,70,198)" stroke-width="1" opacity="1" d="M 115.5 55 L 120 55.5 L 115.5 56 L 115.5 55 Z " /><path fill="rgb(115,70,198)" stroke="rgb(115,70,198)" stroke-width="1" opacity="1" d="M 109.5 57 L 110 59 L 104.5 62 L 106.5 59 L 109.5 57 Z " /><path fill="rgb(186,54,167)" stroke="rgb(186,54,167)" stroke-width="1" opacity="1" d="M 176 31 Q 179 30 178 33 Q 175 34 176 31 Z " /><path fill="rgb(186,54,167)" stroke="rgb(186,54,167)" stroke-width="1" opacity="1" d="M 179.5 32 L 182.5 34 Q 184 31.5 185.5 35 L 191 38 L 196 45.5 L 198 51.5 L 198 104 L 195 102.5 L 194 92 L 190 90.5 Q 188.8 84.8 184 82.5 L 182 67.5 L 182 65.5 Q 179.5 57 173.5 52 L 160.5 46 Q 159.3 48.3 158 45.5 Q 157.3 43.3 159.5 44 L 167.5 41 Q 169 43.5 170.5 40 L 176.5 37 L 178.5 37 Q 180.8 37.8 180 35.5 L 179.5 32 Z " /><path fill="rgb(186,54,167)" stroke="rgb(186,54,167)" stroke-width="1" opacity="1" d="M 99.5 54 L 98.5 56 L 99.5 54 Z " /><path fill="rgb(186,54,167)" stroke="rgb(186,54,167)" stroke-width="1" opacity="1" d="M 114.5 55 L 119.5 56 L 120.5 55 L 160.5 55 L 171 61.5 L 174 69.5 L 174 74.5 L 172 73.5 L 173 69.5 L 170 69.5 L 168.5 72 Q 166.3 72.8 167 70.5 L 167 66.5 L 167 64 Q 164 65 165 62 L 159.5 62 L 153.5 67 L 151.5 66 L 147.5 68 L 142.5 66 L 142.5 67 L 147 69.5 L 145.5 70 L 142.5 68 L 134.5 67 L 128.5 70 L 128 68 L 125 68.5 L 127 69.5 L 123.5 72 L 123.5 71 Q 126.1 71.7 125 69 L 121 71.5 L 122 73.5 L 120.5 73 L 118 72.5 L 121 70.5 L 118.5 69 L 112.5 72 L 110.5 71 Q 109.3 73.3 104.5 72 L 103 71.5 L 102.5 75 Q 100 74 101 69.5 Q 101.9 62.9 106.5 60 L 108 59.5 L 107.5 58 L 110 59 Q 108.9 56.3 111.5 57 L 114.5 55 Z " /><path fill="rgb(186,54,167)" stroke="rgb(186,54,167)" stroke-width="1" opacity="1" d="M 76.5 61 L 78.5 66 L 79.5 64 L 81.5 65 L 88.5 63 L 90.5 66 L 92 61 L 95 61.5 L 92 71.5 L 91.5 80 L 90.5 76 L 88.5 76 L 79.5 79 L 78.5 77 L 77.5 80 L 76.5 61 Z " /><path fill="rgb(186,54,167)" stroke="rgb(186,54,167)" stroke-width="1" opacity="1" d="M 150.5 69 L 149.5 71 L 148 70.5 L 150.5 69 Z " /><path fill="rgb(218,77,147)" stroke="rgb(218,77,147)" stroke-width="1" opacity="1" d="M 181.5 64 L 183 66.5 L 181 65.5 L 181.5 64 Z " /><path fill="rgb(218,77,147)" stroke="rgb(218,77,147)" stroke-width="1" opacity="1" d="M 198.5 64 L 199 117.5 L 198 118.5 L 197 129.5 L 198 132 L 195 133.5 L 195.5 135 L 197 134.5 Q 197.8 136.8 195.5 136 L 195 138.5 L 193.5 141 L 194 139.5 L 193 136.5 L 194 135.5 L 194 126.5 L 193 126.5 L 192.5 130 L 192 125.5 Q 187 120.3 186 112 L 184 111.5 L 184 104.5 L 183 103.5 L 183 80.5 L 184 80.5 L 184 82.5 L 191.5 92 Q 195.7 90.7 194 95.5 Q 196.5 97 195 102.5 L 196.5 104 L 198 103.5 L 198.5 64 Z " /><path fill="rgb(218,77,147)" stroke="rgb(218,77,147)" stroke-width="1" opacity="1" d="M 132.5 66 L 138 67.5 L 132.5 69 L 132.5 68 L 134 67.5 L 132.5 66 Z " /><path fill="rgb(218,77,147)" stroke="rgb(218,77,147)" stroke-width="1" opacity="1" d="M 142.5 66 L 148.5 68 L 152.5 66 L 154.5 67 L 156 66.5 L 156 69.5 L 160.5 75 L 164.5 72 L 166 72.5 L 167.5 69 L 167 70.5 Q 166.3 72.8 168.5 72 L 170.5 69 L 171.5 70 L 174 68.5 L 172 73.5 L 174 75.5 L 174 87.5 L 173 88.5 L 173 96 L 171 95.5 L 171 86.5 L 170 86.5 L 169.5 96 L 169 90 Q 166.3 91.1 167 88.5 L 167.5 87 L 165 87.5 L 166 90.5 L 165 90.5 L 164.5 88 L 163 88.5 L 163 86.5 L 161.5 83 L 159.5 84 L 160 82.5 L 161 80.5 L 158.5 79 L 157 79.5 Q 159.3 78.3 156.5 77 L 152 73.5 Q 154.3 72.3 151.5 71 L 149.5 72 L 149.5 70 L 147.5 71 L 145.5 68 Q 141.8 67.8 142.5 66 Z " /><path fill="rgb(218,77,147)" stroke="rgb(218,77,147)" stroke-width="1" opacity="1" d="M 76.5 68 L 77.5 80 L 78.5 77 L 79.5 79 L 88.5 76 L 91 76.5 L 89.5 83 L 85.5 82 L 79.5 85 L 77.5 82 L 76.5 85 L 76.5 68 Z " /><path fill="rgb(218,77,147)" stroke="rgb(218,77,147)" stroke-width="1" opacity="1" d="M 125.5 68 Q 129.7 66.9 128 71 L 125.5 72 L 123.5 71 L 124 72.5 L 118 78.5 L 117.5 80 L 117 78.5 L 118.5 76 L 115.5 75 L 114.5 78 L 114 76 L 103 78 L 102.5 80 L 102 75.5 L 103.5 71 Q 104.8 73.3 109.5 72 L 111.5 71 L 113.5 71 L 119.5 69 Q 121.5 73 123.5 69 L 125.5 68 Z M 125 69 L 125 71 L 127 70 L 125 69 Z M 121 71 L 118 73 L 121 73 L 121 71 Z M 119 74 L 119 76 L 121 75 L 119 74 Z " /><path fill="rgb(218,77,147)" stroke="rgb(218,77,147)" stroke-width="1" opacity="1" d="M 92.5 71 L 93 74.5 L 92 74.5 L 92.5 71 Z " /><path fill="rgb(218,77,147)" stroke="rgb(218,77,147)" stroke-width="1" opacity="1" d="M 182.5 71 L 183 74.5 L 182 74.5 L 182.5 71 Z " /><path fill="rgb(218,77,147)" stroke="rgb(218,77,147)" stroke-width="1" opacity="1" d="M 130.5 78 L 129.5 80 L 130.5 78 Z " /><path fill="rgb(218,77,147)" stroke="rgb(218,77,147)" stroke-width="1" opacity="1" d="M 144.5 78 L 145.5 80 L 144.5 78 Z " /><path fill="rgb(218,77,147)" stroke="rgb(218,77,147)" stroke-width="1" opacity="1" d="M 127.5 80 L 126.5 82 L 127.5 80 Z " /><path fill="rgb(218,77,147)" stroke="rgb(218,77,147)" stroke-width="1" opacity="1" d="M 147.5 80 L 148.5 82 Q 145.7 82.7 147.5 80 Z " /><path fill="rgb(218,77,147)" stroke="rgb(218,77,147)" stroke-width="1" opacity="1" d="M 151.5 86 L 150.5 88 L 151.5 86 Z " /><path fill="rgb(218,77,147)" stroke="rgb(218,77,147)" stroke-width="1" opacity="1" d="M 160 86 Q 163 85 162 88 Q 159 89 160 86 Z " /><path fill="rgb(218,77,147)" stroke="rgb(218,77,147)" stroke-width="1" opacity="1" d="M 148.5 101 L 147.5 103 L 148.5 101 Z " /><path fill="rgb(218,77,147)" stroke="rgb(218,77,147)" stroke-width="1" opacity="1" d="M 182.5 108 L 183 112.5 L 182 112.5 L 182.5 108 Z " /><path fill="rgb(218,77,147)" stroke="rgb(218,77,147)" stroke-width="1" opacity="1" d="M 170.5 121 L 169.5 123 L 170.5 121 Z " /><path fill="rgb(218,77,147)" stroke="rgb(218,77,147)" stroke-width="1" opacity="1" d="M 173.5 130 L 172.5 132 L 173.5 130 Z " /><path fill="rgb(218,77,147)" stroke="rgb(218,77,147)" stroke-width="1" opacity="1" d="M 192.5 142 L 189.5 146 L 192.5 142 Z " /><path fill="rgb(253,159,80)" stroke="rgb(253,159,80)" stroke-width="1" opacity="1" d="M 76.5 85 L 77 122.5 L 76 122.5 L 76.5 85 Z " /><path fill="rgb(253,159,80)" stroke="rgb(253,159,80)" stroke-width="1" opacity="1" d="M 100.5 88 L 101 95.5 L 100 95.5 L 100.5 88 Z " /><path fill="rgb(253,159,80)" stroke="rgb(253,159,80)" stroke-width="1" opacity="1" d="M 125.5 100 L 128.5 104 L 125.5 100 Z " /><path fill="rgb(253,159,80)" stroke="rgb(253,159,80)" stroke-width="1" opacity="1" d="M 118.5 104 L 124 110.5 L 118 105.5 L 118.5 104 Z " /><path fill="rgb(253,159,80)" stroke="rgb(253,159,80)" stroke-width="1" opacity="1" d="M 92.5 106 L 93 111.5 L 92 111.5 L 92.5 106 Z " /><path fill="rgb(253,159,80)" stroke="rgb(253,159,80)" stroke-width="1" opacity="1" d="M 139.5 114 L 142 114.5 L 139.5 115 L 139.5 114 Z " /><path fill="rgb(253,159,80)" stroke="rgb(253,159,80)" stroke-width="1" opacity="1" d="M 93.5 117 L 94 118.5 L 91 120 L 91.5 122 L 93 121.5 L 93.5 123 L 94.5 120 L 99.5 129 Q 104.3 134.2 112.5 136 L 140.5 137 L 149 139.5 L 147 140 Q 150.1 143.8 149 152 L 98.5 152 L 88.5 148 L 83 144 L 78 133.5 L 79 131.5 L 77 131.5 L 78.5 127 Q 80 129.5 81.5 126 L 88 123 L 88.5 125 L 90.5 118 L 93 119 L 93.5 117 Z " /><path fill="rgb(253,159,80)" stroke="rgb(253,159,80)" stroke-width="1" opacity="1" d="M 104 117 L 119.5 117 L 120 120 L 123 120 Q 121.9 117.3 124.5 118 L 128 120 Q 126.9 122.7 129.5 122 L 136 127.5 L 114.5 128 Q 107.5 126.5 104 121.5 L 103 119.5 L 104 117 Z " /><path fill="rgb(253,159,80)" stroke="rgb(253,159,80)" stroke-width="1" opacity="1" d="M 152.5 136 L 158 136.5 L 152.5 137 L 152.5 136 Z " /><path fill="rgb(233,71,103)" stroke="rgb(233,71,103)" stroke-width="1" opacity="1" d="M 152.5 70 L 153.5 73 L 155 72.5 Q 153.8 75.3 152.5 73 Q 150.3 73.8 151 71.5 L 152.5 70 Z " /><path fill="rgb(233,71,103)" stroke="rgb(233,71,103)" stroke-width="1" opacity="1" d="M 160 73 L 162 73.5 L 160 74.5 L 160 73 Z " /><path fill="rgb(233,71,103)" stroke="rgb(233,71,103)" stroke-width="1" opacity="1" d="M 101.5 74 L 102.5 80 L 103 78 L 114 76 L 114.5 78 L 115.5 75 L 119 76 Q 117.9 73.3 120.5 74 L 117 78.5 L 113.5 91 L 112.5 85 L 112 88 L 104.5 88 L 104 89.5 L 103 89.5 L 103 88 L 101 87.5 L 101.5 74 Z " /><path fill="rgb(233,71,103)" stroke="rgb(233,71,103)" stroke-width="1" opacity="1" d="M 133.5 77 L 140.5 77 L 147 80 Q 145.9 82.7 148.5 82 Q 153.6 85.4 152 95.5 L 149.5 100 L 149 98 Q 145.3 96.5 146 99.5 L 144 100.5 Q 145.1 97.2 142.5 98 L 137.5 94 L 128.5 90 L 127.5 93 L 125.5 88 L 123.5 92 L 123 87.5 L 128.5 80 L 133.5 77 Z " /><path fill="rgb(233,71,103)" stroke="rgb(233,71,103)" stroke-width="1" opacity="1" d="M 158.5 79 L 161 80.5 L 160 83 L 163 84.5 L 163.5 87 L 165.5 87 L 168 87.5 L 167 90 Q 171 88.6 169 95.5 L 170 95.5 L 170.5 86 L 171 96 L 173 95.5 L 173 88.5 L 174 88.5 L 174 113.5 Q 172.6 121 167.5 125 L 165 123.5 L 167 120.5 L 164 118.5 L 162 112 L 155 106.5 L 160 99.5 L 161 88.5 L 162 86 Q 159 87.3 160 83.5 L 158.5 79 Z M 166 88 L 165 91 L 166 91 L 166 88 Z " /><path fill="rgb(233,71,103)" stroke="rgb(233,71,103)" stroke-width="1" opacity="1" d="M 90 80 L 92 80.5 L 92 91.5 L 91 91.5 Q 91.7 88.9 89 90 L 88.5 92 L 86.5 92 L 80 94 Q 81 97 78 96 Q 75.6 92.1 77 82.5 L 78 82.5 L 79.5 85 L 85.5 82 L 88.5 82 L 90 82.5 L 90 80 Z " /><path fill="rgb(233,71,103)" stroke="rgb(233,71,103)" stroke-width="1" opacity="1" d="M 123.5 93 L 124 95.5 L 123 95.5 L 123.5 93 Z " /><path fill="rgb(233,71,103)" stroke="rgb(233,71,103)" stroke-width="1" opacity="1" d="M 146 101 L 148 101.5 L 146 102.5 L 146 101 Z " /><path fill="rgb(233,71,103)" stroke="rgb(233,71,103)" stroke-width="1" opacity="1" d="M 183.5 104 L 184 112 Q 187 110.8 186 114.5 L 192 125.5 L 192.5 130 L 193.5 126 L 194 135.5 L 193 137.5 L 196 136.5 L 187.5 147 L 181.5 150 L 176 147 L 176 141.5 Q 171.8 139.9 173 134 L 169 133.5 L 178 126.5 L 182 117.5 L 183.5 104 Z " /><path fill="rgb(233,71,103)" stroke="rgb(233,71,103)" stroke-width="1" opacity="1" d="M 154.5 108 L 153.5 110 L 150.5 112 L 152.5 109 L 154.5 108 Z " /><path fill="rgb(233,71,103)" stroke="rgb(233,71,103)" stroke-width="1" opacity="1" d="M 156.5 110 L 157.5 112 L 156.5 110 Z " /><path fill="rgb(233,71,103)" stroke="rgb(233,71,103)" stroke-width="1" opacity="1" d="M 197.5 127 L 198 129.5 L 197 129.5 L 197.5 127 Z " /><path fill="rgb(233,71,103)" stroke="rgb(233,71,103)" stroke-width="1" opacity="1" d="M 196.5 132 L 197 133.5 L 195 134.5 L 196.5 132 Z " /><path fill="rgb(233,71,103)" stroke="rgb(233,71,103)" stroke-width="1" opacity="1" d="M 176.5 150 L 180 150.5 L 176.5 151 L 176.5 150 Z " /><path fill="rgb(250,87,69)" stroke="rgb(250,87,69)" stroke-width="1" opacity="1" d="M 112.5 85 L 115 99.5 Q 117.6 106.9 123.5 111 L 127 112 L 127.5 114 L 129.5 114 L 141.5 115 Q 150.1 113.6 155 108.5 L 155.5 107 L 162 112 L 162 114.5 L 165.5 120 L 167 120.5 L 165 123.5 L 166.5 124 L 168 123.5 L 162.5 127 Q 161 124.5 159.5 128 L 136.5 128 L 128 122 Q 129.1 119.3 126.5 120 L 123 118 Q 124.1 121.3 120 120 L 119.5 117 L 104 117 L 103.5 119 L 101 112.5 L 101 88 Q 103.7 89.1 103 86.5 L 104 86.5 L 104.5 88 L 112 88 L 112.5 85 Z " /><path fill="rgb(250,87,69)" stroke="rgb(250,87,69)" stroke-width="1" opacity="1" d="M 125.5 88 L 127.5 93 L 128.5 90 L 144 98 L 144.5 101 L 146 98 Q 150.5 96.5 149 101 L 146 101 Q 147.5 104.8 144.5 104 Q 141.2 107.2 133.5 106 L 125 99.5 L 123 92.5 L 125.5 88 Z " /><path fill="rgb(250,87,69)" stroke="rgb(250,87,69)" stroke-width="1" opacity="1" d="M 89 90 Q 91.7 88.9 91 91.5 L 92 92.5 L 92 112.5 L 94 122.5 L 93 122.5 L 92.5 121 L 91 121.5 Q 90.3 119.3 92.5 120 L 92.5 119 L 90.5 118 L 88.5 125 L 88 123 L 79.5 128 L 78 127.5 L 77.5 130 L 77 94.5 L 78 94.5 Q 77.3 97.1 80 96 Q 78.8 93 82.5 94 L 87.5 91 L 89 91.5 L 89 90 Z " /><path fill="rgb(250,87,69)" stroke="rgb(250,87,69)" stroke-width="1" opacity="1" d="M 79.5 129 L 80 130.5 L 78.5 133 L 78 131.5 L 79.5 129 Z " /><path fill="rgb(250,87,69)" stroke="rgb(250,87,69)" stroke-width="1" opacity="1" d="M 175.5 131 L 174.5 133 L 175.5 131 Z " /><path fill="rgb(250,87,69)" stroke="rgb(250,87,69)" stroke-width="1" opacity="1" d="M 168.5 134 Q 175.3 131.8 173 138.5 Q 177.5 140.3 176 147 L 181 149.5 L 176 150 L 175.5 152 L 149 152 Q 150.1 143.8 147 140 L 149 139.5 L 141 137.5 L 157.5 137 L 168.5 134 Z " /></svg>